<?xml version="1.0" encoding="UTF-8" standalone="no"?>
<!-- Created with Inkscape (http://www.inkscape.org/) -->

<svg
   version="1.1"
   id="svg1"
   width="296.01953"
   height="76.820312"
   viewBox="0 0 296.01953 76.820312"
   xmlns="http://www.w3.org/2000/svg"
   xmlns:svg="http://www.w3.org/2000/svg">
  <defs
     id="defs1" />
  <g
     id="layer-MC0"
     transform="translate(-835.05078,-2280.7266)">
    <g
       id="g801"
       aria-label="FÓRUM FLUMINENSE &#10;DE SECRETÁRIOS E &#10;SECRETÁRIAS DE FINANÇAS"
       transform="matrix(1.3333333,0,0,1.3333333,833.92707,2302.4316)">
      <path
         id="path801"
         d="m 1.2646609,-12.903778 v 12.90234363 h 2.625 V -5.2748719 h 4.8515625 v -2.203125 H 3.8896609 v -3.1992191 h 5.4140625 v -2.226562 z m 19.2451171,7.3710936 v -1.828125 c 0,-3.9843746 -2.039062,-5.7070316 -4.957031,-5.7070316 -2.894531,0 -4.933594,1.722657 -4.933594,5.7070316 v 1.828125 c 0,3.9375 2.039063,5.69531253 4.933594,5.69531253 2.917969,0 4.957031,-1.75781253 4.957031,-5.69531253 z m -7.277344,-1.828125 c 0,-2.4726562 0.808594,-3.5039066 2.320313,-3.5039066 1.511719,0 2.332031,1.0312504 2.332031,3.5039066 v 1.828125 c 0,2.4609375 -0.820312,3.4921875 -2.332031,3.4921875 -1.511719,0 -2.320313,-1.03125 -2.320313,-3.4921875 z m 0.9375,-6.5039066 h 2.320313 l 1.921875,-2.414062 H 15.669934 Z M 32.565442,-0.00143437 29.893567,-5.4975281 c 1.394531,-0.5742188 2.203125,-1.7226563 2.203125,-3.4570313 0,-2.6132816 -1.851562,-3.9492186 -4.828125,-3.9492186 H 22.65138 v 12.90234363 h 2.625 V -5.0639344 h 2.085937 l 2.320313,5.06250003 z M 25.27638,-7.2670594 v -3.4101566 h 1.757812 c 1.546875,0 2.449219,0.375 2.449219,1.7226566 0,1.3476563 -0.902344,1.6875 -2.449219,1.6875 z m 16.209961,-5.6367186 v 7.6874999 c 0,2.203125 -0.738282,3.1757812 -2.34375,3.1757812 -1.605469,0 -2.332032,-0.9726562 -2.332032,-3.1757812 v -7.6874999 h -2.625 v 7.6874999 c 0,3.796875 2.097657,5.37890623 4.957032,5.37890623 2.859375,0 4.957031,-1.58203123 4.957031,-5.40234373 v -7.6640624 z m 7.596679,0 h -2.449218 v 12.90234363 h 2.496093 V -7.9467469 l 2.765625,5.625 h 1.582032 l 2.800781,-5.6835937 v 8.00390623 h 2.507812 V -12.903778 H 56.30177 l -3.585937,7.0312499 z m 0,0"
         style="fill:#231f20;fill-opacity:1;fill-rule:nonzero;stroke:none" />
      <path
         id="path802"
         d="M 66.327161,-12.903778 V -0.00143437 H 67.93263 V -5.6498719 h 5.601562 v -1.453125 H 67.93263 v -4.3359371 h 6.164062 v -1.464844 z m 11.53125,0 h -1.605469 v 12.90234363 h 7.769531 V -1.4545594 h -6.164062 z m 15.495117,0 v 7.6640624 c 0,2.8242187 -1.089844,3.9257812 -3.070312,3.9257812 -1.980469,0 -3.058594,-1.1015625 -3.058594,-3.9257812 v -7.6640624 h -1.605469 v 7.6640624 c 0,3.796875 1.804688,5.39062498 4.664063,5.39062498 2.859375,0 4.675781,-1.59374998 4.675781,-5.40234378 v -7.6523436 z m 6.360352,0 h -1.570313 v 12.90234363 h 1.605469 V -9.3998719 l 3.082034,6.703125 h 1.4414 l 3.14063,-6.7617187 v 9.45703123 h 1.60547 V -12.903778 h -1.59375 l -3.84375,8.0390624 z m 14.2793,0 h -1.60547 v 12.90234363 h 1.60547 z m 10.50293,0 v 9.8554686 l -5.61328,-9.8554686 h -1.52344 v 12.90234363 h 1.60547 V -9.7631531 l 5.5664,9.76171873 h 1.57032 V -12.903778 Z m 4.79004,0 v 12.90234363 h 7.76953 V -1.4545594 h -6.16407 v -4.4882812 h 5.60157 v -1.4648438 h -5.60157 v -4.0312496 h 6.16407 v -1.464844 z m 17.25,0 v 9.8554686 l -5.61329,-9.8554686 h -1.52343 v 12.90234363 h 1.60547 V -9.7631531 l 5.5664,9.76171873 h 1.57031 V -12.903778 Z m 12.74707,1.96875 c -0.91407,-1.417969 -2.20313,-2.109375 -4.26563,-2.109375 -2.95312,0 -4.16016,1.617187 -4.16016,3.4687499 0,2.25 1.57032,3.4101562 3.9961,3.7851562 2.42578,0.3632813 3.04687,1.1953125 3.04687,2.4023438 0,1.1015625 -0.62109,2.0742187 -2.73047,2.0742187 -1.67578,0 -2.42578,-0.5742187 -3.26953,-1.5703125 l -1.32422,0.9257813 c 0.97266,1.39453123 2.50782,2.10937498 4.59375,2.10937498 3.21094,0 4.33594,-1.93359378 4.33594,-3.60937498 0,-2.390625 -1.51172,-3.2929688 -3.99609,-3.7148438 -1.88672,-0.3398437 -3.04688,-0.8671875 -3.04688,-2.4023437 0,-1.3359379 1.00782,-2.0156249 2.50782,-2.0156249 1.61718,0 2.36718,0.65625 3.05859,1.546875 z m 2.71582,-1.96875 v 12.90234363 h 7.76953 V -1.4545594 h -6.16407 v -4.4882812 h 5.60157 v -1.4648438 h -5.60157 v -4.0312496 h 6.16407 v -1.464844 z M 5.6943484,18.99173 c 2.8710938,0 4.6757816,-1.605469 4.6757816,-5.777344 V 11.86673 c 0,-4.1601566 -1.8046878,-5.7773441 -4.6757816,-5.7773441 H 1.5927859 V 18.99173 Z m 0,-1.453125 H 3.1982547 V 7.5542297 h 2.4960937 c 1.9921875,0 3.0703125,1.125 3.0703125,4.3125003 v 1.347656 c 0,3.199219 -1.078125,4.324219 -3.0703125,4.324219 z M 12.904309,6.0893859 V 18.99173 h 7.769532 v -1.453125 h -6.164063 v -4.488282 h 5.601563 V 11.58548 H 14.509778 V 7.5542297 h 6.164063 V 6.0893859 Z m 22.743164,1.96875 c -0.914062,-1.4179687 -2.203125,-2.109375 -4.265625,-2.109375 -2.953125,0 -4.160156,1.6171875 -4.160156,3.46875 0,2.2500001 1.570313,3.4101561 3.996094,3.7851561 2.425781,0.363281 3.046875,1.195313 3.046875,2.402344 0,1.101562 -0.621094,2.074219 -2.730469,2.074219 -1.675781,0 -2.425781,-0.574219 -3.269531,-1.570313 l -1.324219,0.925781 c 0.972656,1.394532 2.507813,2.109375 4.59375,2.109375 3.210938,0 4.335938,-1.933593 4.335938,-3.609375 0,-2.390625 -1.511719,-3.292968 -3.996094,-3.714843 -1.886719,-0.339844 -3.046875,-0.867188 -3.046875,-2.4023441 0,-1.3359375 1.007812,-2.015625 2.507812,-2.015625 1.617188,0 2.367188,0.65625 3.058594,1.546875 z m 2.715821,-1.96875 V 18.99173 h 7.769531 v -1.453125 h -6.164062 v -4.488282 h 5.601562 V 11.58548 H 39.968763 V 7.5542297 h 6.164062 V 6.0893859 Z M 57.125013,10.108917 C 56.714856,7.2964172 55.027356,5.9487609 52.496106,5.9487609 c -2.871093,0 -4.675781,1.7109375 -4.675781,5.8828121 v 1.417969 c 0,4.171875 1.804688,5.894531 4.675781,5.894531 2.4375,0 4.195313,-1.277343 4.605469,-4.171875 H 55.5547 c -0.433594,1.886719 -1.382812,2.707032 -3.058594,2.707032 -1.992187,0 -3.070312,-1.230469 -3.070312,-4.429688 v -1.417969 c 0,-3.1992183 1.078125,-4.4296871 3.070312,-4.4296871 1.582032,0 2.613282,0.6914063 3.058594,2.7070311 z m 11.296875,8.882813 -2.882813,-5.71875 c 1.640625,-0.492188 2.542969,-1.628907 2.542969,-3.4453128 0,-2.4960938 -1.722656,-3.7382813 -4.699219,-3.7382813 H 59.281263 V 18.99173 h 1.605468 v -5.4375 h 3.046875 l 2.683594,5.4375 z M 60.886731,12.089386 V 7.5542297 h 2.496094 c 2.191406,0 3.09375,0.6679687 3.09375,2.2734375 0,1.5937498 -0.902344,2.2617188 -3.09375,2.2617188 z M 70.572278,6.0893859 V 18.99173 h 7.769531 v -1.453125 h -6.164062 v -4.488282 h 5.601562 V 11.58548 H 72.177747 V 7.5542297 h 6.164062 V 6.0893859 Z m 8.613281,0 v 1.4648438 h 3.925782 V 18.99173 h 1.605468 V 7.5542297 h 3.925782 V 6.0893859 Z m 10.87793,12.9023441 0.996094,-2.953125 h 5.074219 l 0.996093,2.953125 h 1.699219 L 94.340833,6.0893859 H 92.852552 L 88.36427,18.99173 Z M 93.602552,8.5268859 95.629895,14.58548 H 91.563489 Z M 92.95802,5.0346984 h 1.441407 L 96.321302,2.6206359 H 94.45802 Z m 16.79297,13.9570316 -2.88281,-5.71875 c 1.64062,-0.492188 2.54297,-1.628907 2.54297,-3.4453128 0,-2.4960938 -1.72266,-3.7382813 -4.69922,-3.7382813 h -4.10157 V 18.99173 h 1.60547 v -5.4375 h 3.04688 l 2.68359,5.4375 z m -7.53516,-6.902344 V 7.5542297 h 2.4961 c 2.1914,0 3.09375,0.6679687 3.09375,2.2734375 0,1.5937498 -0.90235,2.2617188 -3.09375,2.2617188 z m 11.47852,-6.0000001 h -1.60547 V 18.99173 h 1.60547 z m 12.0498,7.1601561 v -1.417969 c 0,-4.1718746 -1.80468,-5.8828121 -4.66406,-5.8828121 -2.87109,0 -4.67578,1.7109375 -4.67578,5.8828121 v 1.417969 c 0,4.171875 1.80469,5.894531 4.67578,5.894531 2.85938,0 4.66406,-1.722656 4.66406,-5.894531 z m -7.73437,-1.417969 c 0,-3.1992183 1.07812,-4.4296871 3.07031,-4.4296871 1.98047,0 3.05859,1.2304688 3.05859,4.4296871 v 1.417969 c 0,3.199219 -1.07812,4.429688 -3.05859,4.429688 -1.99219,0 -3.07031,-1.230469 -3.07031,-4.429688 z m 18.22558,-3.7734371 c -0.91406,-1.4179687 -2.20312,-2.109375 -4.26562,-2.109375 -2.95313,0 -4.16016,1.6171875 -4.16016,3.46875 0,2.2500001 1.57032,3.4101561 3.9961,3.7851561 2.42578,0.363281 3.04687,1.195313 3.04687,2.402344 0,1.101562 -0.62109,2.074219 -2.73047,2.074219 -1.67578,0 -2.42578,-0.574219 -3.26953,-1.570313 l -1.32422,0.925781 c 0.97266,1.394532 2.50782,2.109375 4.59375,2.109375 3.21094,0 4.33594,-1.933593 4.33594,-3.609375 0,-2.390625 -1.51172,-3.292968 -3.99609,-3.714843 -1.88672,-0.339844 -3.04688,-0.867188 -3.04688,-2.4023441 0,-1.3359375 1.00781,-2.015625 2.50781,-2.015625 1.61719,0 2.36719,0.65625 3.0586,1.546875 z m 7.38868,-1.96875 V 18.99173 h 7.76953 v -1.453125 h -6.16407 v -4.488282 h 5.60157 V 11.58548 H 145.2295 V 7.5542297 h 6.16407 V 6.0893859 Z M 9.5498172,27.0513 c -0.9140625,-1.417969 -2.203125,-2.109375 -4.265625,-2.109375 -2.953125,0 -4.1601563,1.617188 -4.1601563,3.46875 0,2.25 1.5703125,3.410156 3.9960938,3.785156 2.4257812,0.363282 3.046875,1.195313 3.046875,2.402344 0,1.101563 -0.6210938,2.074219 -2.7304688,2.074219 -1.6757812,0 -2.4257812,-0.574219 -3.2695312,-1.570313 l -1.32421876,0.925782 c 0.97265626,1.394531 2.50781246,2.109375 4.59374996,2.109375 3.2109375,0 4.3359375,-1.933594 4.3359375,-3.609375 0,-2.390625 -1.5117187,-3.292969 -3.9960937,-3.714844 -1.8867188,-0.339844 -3.046875,-0.867188 -3.046875,-2.402344 0,-1.335937 1.0078125,-2.015625 2.5078125,-2.015625 1.6171875,0 2.3671875,0.65625 3.0585937,1.546875 z m 2.7187498,-1.96875 v 12.902344 h 7.769531 v -1.453125 h -6.164062 v -4.488281 h 5.601562 v -1.464844 h -5.601562 v -4.03125 h 6.164062 V 25.08255 Z m 18.761719,4.019531 c -0.410156,-2.8125 -2.097656,-4.160156 -4.628906,-4.160156 -2.871094,0 -4.675782,1.710938 -4.675782,5.882813 v 1.417968 c 0,4.171875 1.804688,5.894532 4.675782,5.894532 2.4375,0 4.195312,-1.277344 4.605468,-4.171875 h -1.546875 c -0.433593,1.886718 -1.382812,2.707031 -3.058593,2.707031 -1.992188,0 -3.070313,-1.230469 -3.070313,-4.429688 v -1.417968 c 0,-3.199219 1.078125,-4.429688 3.070313,-4.429688 1.582031,0 2.613281,0.691406 3.058593,2.707031 z m 11.296875,8.882813 -2.882813,-5.71875 c 1.640625,-0.492188 2.542969,-1.628906 2.542969,-3.445313 0,-2.496093 -1.722656,-3.738281 -4.699219,-3.738281 h -4.101562 v 12.902344 h 1.605469 v -5.4375 h 3.046875 l 2.683593,5.4375 z M 34.792005,31.08255 v -4.535156 h 2.496093 c 2.191407,0 3.09375,0.667969 3.09375,2.273437 0,1.59375 -0.902343,2.261719 -3.09375,2.261719 z m 9.682617,-6 v 12.902344 h 7.769531 v -1.453125 h -6.164062 v -4.488281 h 5.601562 v -1.464844 h -5.601562 v -4.03125 h 6.164062 V 25.08255 Z m 8.613281,0 v 1.464844 h 3.925781 v 11.4375 h 1.605469 v -11.4375 h 3.925781 V 25.08255 Z m 10.87793,12.902344 0.996094,-2.953125 h 5.074218 l 0.996094,2.953125 h 1.699219 L 68.243177,25.08255 h -1.488282 l -4.488281,12.902344 z m 3.539062,-10.464844 2.027344,6.058594 H 65.465833 Z M 66.860364,24.027863 H 68.30177 L 70.223645,21.6138 h -1.863281 z m 16.795899,13.957031 -2.882813,-5.71875 c 1.640625,-0.492188 2.542969,-1.628906 2.542969,-3.445313 0,-2.496093 -1.722656,-3.738281 -4.699219,-3.738281 h -4.101562 v 12.902344 h 1.605468 v -5.4375 h 3.046875 l 2.683594,5.4375 z M 76.121106,31.08255 V 26.547394 H 78.6172 c 2.191406,0 3.09375,0.667969 3.09375,2.273437 0,1.59375 -0.902344,2.261719 -3.09375,2.261719 z m 11.478516,-6 h -1.605469 v 12.902344 h 1.605469 z m 3.65918,12.902344 0.996093,-2.953125 h 5.074219 l 0.996094,2.953125 h 1.699222 L 95.536145,25.08255 h -1.488281 l -4.488281,12.902344 z m 3.539062,-10.464844 2.027344,6.058594 H 92.758802 Z M 109.76564,27.0513 c -0.91406,-1.417969 -2.20313,-2.109375 -4.26563,-2.109375 -2.95312,0 -4.16015,1.617188 -4.16015,3.46875 0,2.25 1.57031,3.410156 3.99609,3.785156 2.42578,0.363282 3.04688,1.195313 3.04688,2.402344 0,1.101563 -0.6211,2.074219 -2.73047,2.074219 -1.67578,0 -2.42578,-0.574219 -3.26953,-1.570313 l -1.32422,0.925782 c 0.97265,1.394531 2.50781,2.109375 4.59375,2.109375 3.21093,0 4.33593,-1.933594 4.33593,-3.609375 0,-2.390625 -1.51171,-3.292969 -3.99609,-3.714844 -1.88672,-0.339844 -3.04687,-0.867188 -3.04687,-2.402344 0,-1.335937 1.00781,-2.015625 2.50781,-2.015625 1.61719,0 2.36719,0.65625 3.05859,1.546875 z m 11.49023,10.933594 c 2.8711,0 4.67578,-1.605469 4.67578,-5.777344 v -1.347656 c 0,-4.160156 -1.80468,-5.777344 -4.67578,-5.777344 h -4.10156 v 12.902344 z m 0,-1.453125 h -2.49609 v -9.984375 h 2.49609 c 1.99219,0 3.07031,1.125 3.07031,4.3125 v 1.347656 c 0,3.199219 -1.07812,4.324219 -3.07031,4.324219 z M 128.4629,25.08255 v 12.902344 h 7.76953 v -1.453125 h -6.16406 v -4.488281 h 5.60156 v -1.464844 h -5.60156 v -4.03125 h 6.16406 V 25.08255 Z m 14.78614,0 v 12.902344 h 1.60546 v -5.648438 h 5.60157 v -1.453125 h -5.60157 v -4.335937 h 6.16407 V 25.08255 Z m 11.71875,0 h -1.60547 v 12.902344 h 1.60547 z m 10.50293,0 v 9.855469 L 159.85743,25.08255 H 158.334 v 12.902344 h 1.60547 v -9.761719 l 5.5664,9.761719 h 1.57031 V 25.08255 Z m 5.083,12.902344 0.9961,-2.953125 h 5.07422 l 0.99609,2.953125 h 1.69922 L 174.83107,25.08255 h -1.48828 l -4.48829,12.902344 z m 3.53907,-10.464844 2.02734,6.058594 h -4.06641 z m 14.14746,-2.4375 v 9.855469 l -5.61328,-9.855469 h -1.52344 v 12.902344 h 1.60547 v -9.761719 l 5.5664,9.761719 h 1.57032 V 25.08255 Z m 8.20019,14.191406 c 0.46875,0 1.03125,0.05859 1.03125,0.527344 0,0.445313 -0.48047,0.515625 -0.8789,0.515625 -0.12891,0 -0.2461,0 -0.35157,-0.01172 l -0.22265,0.972657 c 0.15234,0.03516 0.42187,0.05859 0.6914,0.05859 1.17188,0 2.07422,-0.527343 2.07422,-1.535156 0,-0.75 -0.46875,-1.195312 -1.16015,-1.382812 l 0.0937,-0.316407 c 2.09765,-0.210937 3.57421,-1.5 3.9375,-4.136718 h -1.54688 c -0.43359,1.886718 -1.38281,2.707031 -3.05859,2.707031 -1.99219,0 -3.07032,-1.230469 -3.07032,-4.429688 v -1.417968 c 0,-3.199219 1.07813,-4.429688 3.07032,-4.429688 1.58203,0 2.61328,0.691406 3.05859,2.707031 h 1.57031 c -0.41015,-2.8125 -2.09765,-4.160156 -4.6289,-4.160156 -2.8711,0 -4.67578,1.710938 -4.67578,5.882813 v 1.417968 c 0,4.007813 1.66406,5.742188 4.30078,5.871094 z m 7.6875,-1.289062 0.9961,-2.953125 h 5.07421 l 0.9961,2.953125 h 1.69922 L 208.40529,25.08255 H 206.917 l -4.48828,12.902344 z m 3.53906,-10.464844 2.02735,6.058594 h -4.06641 z m 14.96778,-0.46875 c -0.91406,-1.417969 -2.20313,-2.109375 -4.26563,-2.109375 -2.95312,0 -4.16015,1.617188 -4.16015,3.46875 0,2.25 1.57031,3.410156 3.99609,3.785156 2.42578,0.363282 3.04688,1.195313 3.04688,2.402344 0,1.101563 -0.6211,2.074219 -2.73047,2.074219 -1.67578,0 -2.42578,-0.574219 -3.26953,-1.570313 l -1.32422,0.925782 c 0.97265,1.394531 2.50781,2.109375 4.59375,2.109375 3.21093,0 4.33593,-1.933594 4.33593,-3.609375 0,-2.390625 -1.51171,-3.292969 -3.99609,-3.714844 -1.88672,-0.339844 -3.04687,-0.867188 -3.04687,-2.402344 0,-1.335937 1.00781,-2.015625 2.50781,-2.015625 1.61719,0 2.36719,0.65625 3.05859,1.546875 z m 0,0"
         style="fill:#231f20;fill-opacity:1;fill-rule:nonzero;stroke:none" />
    </g>
  </g>
</svg>
